#define code_width 20
#define code_height 20
static char code_bits[] = {
  0xFF, 0xFF, 0x0F, 0xFF, 0xFF, 0x0F, 0xFF, 0xFF, 0x0F, 0xFF, 0xE7, 0x0F, 
  0xFF, 0xE3, 0x0F, 0xFF, 0xE3, 0x0F, 0xC7, 0x23, 0x0E, 0xC3, 0x31, 0x0C, 
  0xC1, 0x31, 0x08, 0xE1, 0x71, 0x08, 0xE1, 0x78, 0x08, 0xC1, 0x38, 0x08, 
  0xC3, 0x38, 0x0C, 0x47, 0x3C, 0x0E, 0x7F, 0xFC, 0x0F, 0x7F, 0xFC, 0x0F, 
  0x7F, 0xFE, 0x0F, 0xFF, 0xFF, 0x0F, 0xFF, 0xFF, 0x0F, 0xFF, 0xFF, 0x0F, 
  };
